<svg xmlns="http://www.w3.org/2000/svg" viewBox="0 0 1200 675" width="1200" height="675"><rect width="1200" height="675" fill="#f7f3ea"/><rect x="250" y="250" width="160" height="230" rx="30" fill="#ffffff" opacity=".7" stroke="#cfe0d4" stroke-width="5"/><rect x="260" y="270" width="140" height="200" rx="24" fill="#f2994a"/><circle cx="280" cy="290" r="10" fill="#e07b2c"/><circle cx="305" cy="290" r="10" fill="#e07b2c"/><circle cx="330" cy="290" r="10" fill="#e07b2c"/><circle cx="355" cy="290" r="10" fill="#e07b2c"/><circle cx="380" cy="290" r="10" fill="#e07b2c"/><circle cx="280" cy="315" r="10" fill="#e07b2c"/><circle cx="305" cy="315" r="10" fill="#e07b2c"/><circle cx="330" cy="315" r="10" fill="#e07b2c"/><circle cx="355" cy="315" r="10" fill="#e07b2c"/><circle cx="380" cy="315" r="10" fill="#e07b2c"/><circle cx="280" cy="340" r="10" fill="#e07b2c"/><circle cx="305" cy="340" r="10" fill="#e07b2c"/><circle cx="330" cy="340" r="10" fill="#e07b2c"/><circle cx="355" cy="340" r="10" fill="#e07b2c"/><circle cx="380" cy="340" r="10" fill="#e07b2c"/><circle cx="280" cy="365" r="10" fill="#e07b2c"/><circle cx="305" cy="365" r="10" fill="#e07b2c"/><circle cx="330" cy="365" r="10" fill="#e07b2c"/><circle cx="355" cy="365" r="10" fill="#e07b2c"/><circle cx="380" cy="365" r="10" fill="#e07b2c"/><circle cx="280" cy="390" r="10" fill="#e07b2c"/><circle cx="305" cy="390" r="10" fill="#e07b2c"/><circle cx="330" cy="390" r="10" fill="#e07b2c"/><circle cx="355" cy="390" r="10" fill="#e07b2c"/><circle cx="380" cy="390" r="10" fill="#e07b2c"/><circle cx="280" cy="415" r="10" fill="#e07b2c"/><circle cx="305" cy="415" r="10" fill="#e07b2c"/><circle cx="330" cy="415" r="10" fill="#e07b2c"/><circle cx="355" cy="415" r="10" fill="#e07b2c"/><circle cx="380" cy="415" r="10" fill="#e07b2c"/><rect x="260" y="222" width="140" height="36" rx="10" fill="#174c38"/><rect x="520" y="220" width="160" height="230" rx="30" fill="#ffffff" opacity=".7" stroke="#cfe0d4" stroke-width="5"/><rect x="530" y="240" width="140" height="200" rx="24" fill="#7a8c3a"/><circle cx="550" cy="260" r="10" fill="#5f6f2a"/><circle cx="575" cy="260" r="10" fill="#5f6f2a"/><circle cx="600" cy="260" r="10" fill="#5f6f2a"/><circle cx="625" cy="260" r="10" fill="#5f6f2a"/><circle cx="650" cy="260" r="10" fill="#5f6f2a"/><circle cx="550" cy="285" r="10" fill="#5f6f2a"/><circle cx="575" cy="285" r="10" fill="#5f6f2a"/><circle cx="600" cy="285" r="10" fill="#5f6f2a"/><circle cx="625" cy="285" r="10" fill="#5f6f2a"/><circle cx="650" cy="285" r="10" fill="#5f6f2a"/><circle cx="550" cy="310" r="10" fill="#5f6f2a"/><circle cx="575" cy="310" r="10" fill="#5f6f2a"/><circle cx="600" cy="310" r="10" fill="#5f6f2a"/><circle cx="625" cy="310" r="10" fill="#5f6f2a"/><circle cx="650" cy="310" r="10" fill="#5f6f2a"/><circle cx="550" cy="335" r="10" fill="#5f6f2a"/><circle cx="575" cy="335" r="10" fill="#5f6f2a"/><circle cx="600" cy="335" r="10" fill="#5f6f2a"/><circle cx="625" cy="335" r="10" fill="#5f6f2a"/><circle cx="650" cy="335" r="10" fill="#5f6f2a"/><circle cx="550" cy="360" r="10" fill="#5f6f2a"/><circle cx="575" cy="360" r="10" fill="#5f6f2a"/><circle cx="600" cy="360" r="10" fill="#5f6f2a"/><circle cx="625" cy="360" r="10" fill="#5f6f2a"/><circle cx="650" cy="360" r="10" fill="#5f6f2a"/><circle cx="550" cy="385" r="10" fill="#5f6f2a"/><circle cx="575" cy="385" r="10" fill="#5f6f2a"/><circle cx="600" cy="385" r="10" fill="#5f6f2a"/><circle cx="625" cy="385" r="10" fill="#5f6f2a"/><circle cx="650" cy="385" r="10" fill="#5f6f2a"/><rect x="530" y="192" width="140" height="36" rx="10" fill="#174c38"/><rect x="790" y="250" width="160" height="230" rx="30" fill="#ffffff" opacity=".7" stroke="#cfe0d4" stroke-width="5"/><rect x="800" y="270" width="140" height="200" rx="24" fill="#e8c98f"/><circle cx="820" cy="290" r="10" fill="#d4ae6a"/><circle cx="845" cy="290" r="10" fill="#d4ae6a"/><circle cx="870" cy="290" r="10" fill="#d4ae6a"/><circle cx="895" cy="290" r="10" fill="#d4ae6a"/><circle cx="920" cy="290" r="10" fill="#d4ae6a"/><circle cx="820" cy="315" r="10" fill="#d4ae6a"/><circle cx="845" cy="315" r="10" fill="#d4ae6a"/><circle cx="870" cy="315" r="10" fill="#d4ae6a"/><circle cx="895" cy="315" r="10" fill="#d4ae6a"/><circle cx="920" cy="315" r="10" fill="#d4ae6a"/><circle cx="820" cy="340" r="10" fill="#d4ae6a"/><circle cx="845" cy="340" r="10" fill="#d4ae6a"/><circle cx="870" cy="340" r="10" fill="#d4ae6a"/><circle cx="895" cy="340" r="10" fill="#d4ae6a"/><circle cx="920" cy="340" r="10" fill="#d4ae6a"/><circle cx="820" cy="365" r="10" fill="#d4ae6a"/><circle cx="845" cy="365" r="10" fill="#d4ae6a"/><circle cx="870" cy="365" r="10" fill="#d4ae6a"/><circle cx="895" cy="365" r="10" fill="#d4ae6a"/><circle cx="920" cy="365" r="10" fill="#d4ae6a"/><circle cx="820" cy="390" r="10" fill="#d4ae6a"/><circle cx="845" cy="390" r="10" fill="#d4ae6a"/><circle cx="870" cy="390" r="10" fill="#d4ae6a"/><circle cx="895" cy="390" r="10" fill="#d4ae6a"/><circle cx="920" cy="390" r="10" fill="#d4ae6a"/><circle cx="820" cy="415" r="10" fill="#d4ae6a"/><circle cx="845" cy="415" r="10" fill="#d4ae6a"/><circle cx="870" cy="415" r="10" fill="#d4ae6a"/><circle cx="895" cy="415" r="10" fill="#d4ae6a"/><circle cx="920" cy="415" r="10" fill="#d4ae6a"/><rect x="800" y="222" width="140" height="36" rx="10" fill="#174c38"/><g><rect x="60" y="56" rx="22" height="44" width="329" fill="#174c38"/><text x="82" y="86" font-family="system-ui,-apple-system,Segoe UI,Roboto,sans-serif" font-size="22" font-weight="700" fill="#d7f369">Protéines végétales</text></g></svg>